PathFileType	4	(X/Y/Z)	/Users/itak/Documents/Research/Walk-IL/dataset/trc/00233_00009.trc
DataRate	CameraRate	NumFrames	NumMarkers	Units	OrigDataRate	OrigDataStartFrame	OrigNumFrames
100.000000	100.000000	4	53	mm	100.000000	107	857
Frame#	Time	RPSI			LPSI			L3			STRN			T10			C7			CLAV			RBAK			LBAK			LSHO			LUPA			LAEL			LAOL			LWTS			LWPS			LFRA			LIFD			LHPS			LHTS			RSHO			RUPA			RAEL			RAOL			RWTS			RWPS			RFRA			RIFD			RHTS			RHPS			RBHD			LFHD			RFHD			LBHD			LHIP			RHIP			RASI			LASI			LKNE			LTHI			LANK			LTIP			LTOE			LMT1			LMT5			LHEE			RKNE			RTHI			RANK			RTIP			RTOE			RMT1			RMT5			RHEE			
		X1	Y1	Z1	X2	Y2	Z2	X3	Y3	Z3	X4	Y4	Z4	X5	Y5	Z5	X6	Y6	Z6	X7	Y7	Z7	X8	Y8	Z8	X9	Y9	Z9	X10	Y10	Z10	X11	Y11	Z11	X12	Y12	Z12	X13	Y13	Z13	X14	Y14	Z14	X15	Y15	Z15	X16	Y16	Z16	X17	Y17	Z17	X18	Y18	Z18	X19	Y19	Z19	X20	Y20	Z20	X21	Y21	Z21	X22	Y22	Z22	X23	Y23	Z23	X24	Y24	Z24	X25	Y25	Z25	X26	Y26	Z26	X27	Y27	Z27	X28	Y28	Z28	X29	Y29	Z29	X30	Y30	Z30	X31	Y31	Z31	X32	Y32	Z32	X33	Y33	Z33	X34	Y34	Z34	X35	Y35	Z35	X36	Y36	Z36	X37	Y37	Z37	X38	Y38	Z38	X39	Y39	Z39	X40	Y40	Z40	X41	Y41	Z41	X42	Y42	Z42	X43	Y43	Z43	X44	Y44	Z44	X45	Y45	Z45	X46	Y46	Z46	X47	Y47	Z47	X48	Y48	Z48	X49	Y49	Z49	X50	Y50	Z50	X51	Y51	Z51	X52	Y52	Z52	X53	Y53	Z53	

108	1.07	28.03620147705078	1052.267944335938	625.7330322265625	50.21611785888672	1054.00146484375	507.9127197265625	36.03207015991211	1128.47607421875	549.18359375	279.4325866699219	1315.29931640625	585.5172119140625	29.40492248535156	1256.214599609375	555.5637817382812	90.97480773925781	1518.045288085938	560.7197875976562	252.8694458007812	1432.49755859375	584.9319458007812	5.090763092041016	1378.769409179688	620.8687133789062	85.66374969482422	1479.985473632812	448.4931640625	181.7106170654297	1479.47998046875	404.8356628417969	159.9366455078125	1361.535522460938	322.6421508789062	176.6010894775391	1151.588134765625	294.8812866210938	98.82537841796875	1134.45263671875	332.5516662597656	267.5802001953125	922.8798217773438	368.1636047363281	254.6524658203125	903.9351196289062	287.1745300292969	204.2147521972656	1044.960327148438	285.961669921875	274.2945861816406	730.5792236328125	366.7166442871094	273.730712890625	816.335205078125	295.8591613769531	307.9236755371094	822.7617797851562	354.673095703125	124.2360763549805	1474.306518554688	736.8389282226562	97.15049743652344	1407.877685546875	799.7899780273438	75.14747619628906	1127.925415039062	838.9544677734375	50.83768844604492	1119.635864257812	746.9216918945312	216.3721466064453	914.120849609375	814.1188354492188	157.6296234130859	900.2734985351562	872.848388671875	100.5599060058594	1059.759033203125	855.22900390625	231.9908142089844	721.7042846679688	811.8945922851562	255.0547943115234	794.0239868164062	835.8076171875	197.6170806884766	793.7537231445312	879.3430786132812	114.5780334472656	1671.163696289062	598.9710083007812	334.0905456542969	1722.919189453125	570.9073486328125	302.2227478027344	1723.051391601562	665.8021850585938	199.0760498046875	1679.329345703125	486.7842102050781	167.2995452880859	985.9047241210938	386.0267944335938	105.6202850341797	1010.030395507812	747.7265625	207.6913452148438	1050.203369140625	726.84619140625	262.6705932617188	1027.566284179688	451.4895324707031	177.5635986328125	501.4100341796875	449.9375915527344	187.1277008056641	644.1324462890625	413.8804321289062	83.92720031738281	34.90068817138672	464.4412536621094	124.4553070068359	279.7062377929688	445.1431884765625	285.6291198730469	41.0291748046875	559.182373046875	209.4101104736328	35.28512573242188	587.0681762695312	214.3843078613281	36.13652420043945	471.7586669921875	13.63216972351074	39.23212432861328	504.0345764160156	129.9635314941406	516.53271484375	718.230712890625	155.8455505371094	784.05859375	764.6058349609375	63.72708892822266	33.12834930419922	687.0918579101562	135.3444976806641	401.493896484375	702.4483032226562	279.2835083007812	42.85306549072266	673.7996215820312	229.3016357421875	40.17422103881836	623.5853881835938	167.5588684082031	34.96108245849609	729.26513671875	9.317485809326172	31.62801361083984	620.9783935546875	
109	1.08	28.19476127624512	1052.24853515625	625.4059448242188	50.39909362792969	1053.96875	507.5753173828125	36.22219467163086	1128.505004882812	548.8103637695312	279.6514892578125	1315.254028320312	585.1357421875	29.54826164245605	1256.233520507812	555.1654663085938	91.26564025878906	1518.060302734375	560.3235473632812	253.1477508544922	1432.45947265625	584.5172729492188	5.342803478240967	1378.830444335938	620.5300903320312	85.91135406494141	1479.984985351562	448.094970703125	181.9708404541016	1479.447998046875	404.4371032714844	160.2064666748047	1361.492553710938	322.2654418945312	176.7816467285156	1151.527709960938	294.5192565917969	98.99197387695312	1134.46337890625	332.1937255859375	267.5752258300781	922.7902221679688	367.816162109375	254.6843109130859	903.8675537109375	286.8200378417969	204.2714691162109	1044.898803710938	285.6067504882812	274.0400390625	730.5381469726562	366.3588256835938	273.7850036621094	816.2215576171875	295.516845703125	307.87255859375	822.597900390625	354.3137512207031	124.5326538085938	1474.328247070312	736.4459838867188	97.46258544921875	1407.908325195312	799.4276123046875	75.41910552978516	1127.97900390625	838.640869140625	51.00538635253906	1119.687622070312	746.6005859375	216.5552215576172	914.1367797851562	813.7538452148438	157.8758239746094	900.3018798828125	872.513916015625	100.8283615112305	1059.804321289062	854.9074096679688	232.1402282714844	721.7135620117188	811.5499877929688	255.21630859375	794.0354614257812	835.4491577148438	197.99609375	793.8038940429688	879.0001831054688	114.9770278930664	1671.2412109375	598.7385864257812	334.5465393066406	1722.7138671875	570.2523803710938	302.8929748535156	1722.860595703125	665.2213134765625	199.3058776855469	1679.282836914062	486.4209594726562	167.5281982421875	985.8511962890625	385.7076110839844	105.6771240234375	1010.053894042969	747.4297485351562	207.9008178710938	1050.211059570312	726.5275268554688	262.8806457519531	1027.515625	451.1853637695312	177.7249298095703	501.3753662109375	449.8231506347656	187.2926940917969	644.0841064453125	413.7016296386719	83.92658233642578	34.90060043334961	464.4371643066406	124.5680618286133	279.6708374023438	445.0697021484375	285.6289367675781	41.02960205078125	559.18212890625	209.4101409912109	35.28556060791016	587.0679321289062	214.3822784423828	36.13738250732422	471.7693176269531	13.62710189819336	39.23352432250977	504.0234680175781	130.1282501220703	516.555419921875	718.0928344726562	155.9626159667969	784.0805053710938	764.3545532226562	63.72521591186523	33.11423110961914	687.1030883789062	135.4779815673828	401.4970092773438	702.3519897460938	279.2847900390625	42.85080337524414	673.7945556640625	229.298828125	40.1767463684082	623.5746459960938	167.5511627197266	34.95778656005859	729.2740478515625	9.308860778808594	31.62079620361328	620.974365234375	
110	1.09	28.36463165283203	1052.225341796875	625.0763549804688	50.58284759521484	1053.933227539062	507.2296142578125	36.43933868408203	1128.529418945312	548.43505859375	279.8788452148438	1315.209838867188	584.7389526367188	29.71466827392578	1256.25048828125	554.7667846679688	91.54319000244141	1518.067504882812	559.9172973632812	253.4178619384766	1432.412719726562	584.0830078125	5.595094680786133	1378.880493164062	620.1774291992188	86.15779876708984	1479.967895507812	447.67333984375	182.2205505371094	1479.418823242188	404.0212097167969	160.4718933105469	1361.44775390625	321.8766784667969	176.9844360351562	1151.464477539062	294.1617431640625	99.15391540527344	1134.463256835938	331.84375	267.5921325683594	922.7022094726562	367.4703063964844	254.7224731445312	903.80029296875	286.4652709960938	204.3101959228516	1044.837036132812	285.2418823242188	273.8037414550781	730.5010986328125	366.0054931640625	273.7898254394531	816.1061401367188	295.1614990234375	307.7731323242188	822.4277954101562	353.9361877441406	124.8286972045898	1474.34521484375	736.04052734375	97.77023315429688	1407.942749023438	799.0462646484375	75.68740844726562	1128.033081054688	838.3203735351562	51.17771530151367	1119.736938476562	746.2633666992188	216.7464752197266	914.1549072265625	813.3943481445312	158.1169281005859	900.3278198242188	872.1771850585938	101.0734786987305	1059.85205078125	854.5804443359375	232.3000030517578	721.7278442382812	811.2244262695312	255.3821868896484	794.0541381835938	835.1002197265625	198.3474884033203	793.8543701171875	878.6600952148438	115.41064453125	1671.32421875	598.5144653320312	335.0208740234375	1722.491821289062	569.57177734375	303.5917358398438	1722.659545898438	664.61767578125	199.5222930908203	1679.244018554688	486.0493774414062	167.7911224365234	985.7978515625	385.3880310058594	105.7331314086914	1010.079772949219	747.1254272460938	208.1042785644531	1050.214233398438	726.201904296875	263.06689453125	1027.461059570312	450.8704223632812	177.8937225341797	501.3407592773438	449.7098999023438	187.465576171875	644.035888671875	413.5145263671875	83.92699432373047	34.90002822875977	464.4314575195312	124.6873550415039	279.6361694335938	444.994140625	285.6288452148438	41.02953720092773	559.1831665039062	209.4102325439453	35.28609848022461	587.0675659179688	214.3794250488281	36.13776779174805	471.7808837890625	13.61959838867188	39.23587036132812	504.0107421875	130.2868194580078	516.5752563476562	717.9580688476562	156.0615692138672	784.1006469726562	764.0995483398438	63.72380065917969	33.09715270996094	687.1196899414062	135.6025238037109	401.4971313476562	702.2573852539062	279.28564453125	42.84904098510742	673.7922973632812	229.2942962646484	40.1812629699707	623.5599975585938	167.5465850830078	34.95185470581055	729.2852783203125	9.298582077026367	31.61170387268066	620.9730834960938	
111	1.1	28.54803848266602	1052.201904296875	624.7383422851562	50.77030944824219	1053.896240234375	506.8736572265625	36.6840934753418	1128.550415039062	548.0617065429688	280.1150207519531	1315.165405273438	584.32568359375	29.91025924682617	1256.265380859375	554.369873046875	91.80947113037109	1518.06689453125	559.5032348632812	253.6746215820312	1432.360717773438	583.6314086914062	5.848092555999756	1378.919921875	619.8135986328125	86.40350341796875	1479.934692382812	447.2284545898438	182.4605102539062	1479.392211914062	403.5878295898438	160.7243194580078	1361.4033203125	321.4719543457031	177.201171875	1151.400634765625	293.8074645996094	99.30717468261719	1134.450439453125	331.4998168945312	267.6286926269531	922.6135864257812	367.1227111816406	254.7618255615234	903.7301635742188	286.10888671875	204.3440856933594	1044.774780273438	284.8690795898438	273.5596923828125	730.4697875976562	365.6578369140625	273.7420043945312	815.9901123046875	294.7932434082031	307.6338195800781	822.2567138671875	353.541748046875	125.1262435913086	1474.35791015625	735.62353515625	98.07585906982422	1407.98193359375	798.6460571289062	75.9544677734375	1128.0869140625	837.99365234375	51.35445404052734	1119.785034179688	745.9140014648438	216.9496459960938	914.1760864257812	813.0382080078125	158.3487091064453	900.3541259765625	871.8394775390625	101.2980194091797	1059.903198242188	854.250244140625	232.4764251708984	721.7484130859375	810.9130249023438	255.5597991943359	794.0806274414062	834.7575073242188	198.6434936523438	793.9029541015625	878.3236694335938	115.8850402832031	1671.414306640625	598.3034057617188	335.5163269042969	1722.250366210938	568.8648071289062	304.3235168457031	1722.447143554688	663.990234375	199.7287139892578	1679.2138671875	485.6680908203125	168.0826873779297	985.7446899414062	385.0647888183594	105.8121566772461	1010.108642578125	746.8102416992188	208.2951812744141	1050.213745117188	725.8663330078125	263.2333068847656	1027.402954101562	450.5429382324219	178.0708770751953	501.3057250976562	449.5954895019531	187.6497344970703	643.987060546875	413.3190612792969	83.92919158935547	34.89805221557617	464.4242248535156	124.8112487792969	279.6014404296875	444.9169311523438	285.62841796875	41.02874755859375	559.1861572265625	209.4103698730469	35.28671264648438	587.0671997070312	214.3762054443359	36.13797378540039	471.7928771972656	13.61072158813477	39.24016189575195	503.9960327148438	130.4381256103516	516.5910034179688	717.82470703125	156.1387176513672	784.1194458007812	763.84033203125	63.72251510620117	33.07895278930664	687.1414794921875	135.7154693603516	401.4942626953125	702.1637573242188	279.285888671875	42.84788131713867	673.7930908203125	229.2882690429688	40.18727111816406	623.542236328125	167.5449829101562	34.94313812255859	729.2988891601562	9.287374496459961	31.60018157958984	620.9755859375	
